<svg width="446" height="95" viewBox="0 0 446 95" fill="none" xmlns="http://www.w3.org/2000/svg">
<path d="M386.513 5.05669C386.676 4.78502 386.295 3.53535 385.697 2.34002C385.045 1.14469 384.773 0.166687 384.99 0.166687C385.208 0.166687 386.893 0.38402 388.688 0.71002C390.482 0.981687 393.092 1.30769 394.56 1.52502C395.974 1.68802 397.279 1.90535 397.55 2.01402C397.768 2.12269 399.399 2.34002 401.193 2.55735C402.988 2.72035 405.054 3.04635 405.815 3.20935C406.576 3.31802 408.153 3.58969 409.349 3.75269C410.546 3.91569 411.905 4.07869 412.394 4.13302C412.829 4.18735 413.59 4.62202 414.025 5.05669C414.46 5.54569 415.385 6.74102 416.146 7.77335C416.853 8.80569 417.668 9.94669 417.886 10.2184C418.158 10.49 418.756 11.305 419.299 11.957C419.789 12.5547 420.604 13.6414 421.039 14.2934C421.474 14.9997 423.486 17.6077 425.444 20.2157C427.945 23.53 429.304 24.834 430.065 24.7797C430.609 24.7254 432.077 24.5624 433.273 24.345C434.469 24.182 436.699 23.856 438.221 23.6387C440.885 23.2584 441.049 23.3127 441.429 24.6167C441.647 25.3774 442.625 27.605 443.55 29.561C444.474 31.517 445.181 33.4187 445.126 33.799C445.018 34.1794 444.691 34.1794 444.039 33.636C443.495 33.2014 442.408 32.7124 441.592 32.5494C440.179 32.2234 440.07 32.3864 439.961 34.0164C439.961 34.94 439.852 36.0267 439.798 36.2984C439.744 36.57 439.526 37.548 439.309 38.4717C439.037 39.7214 437.786 40.971 434.089 43.6334C431.37 45.5894 429.195 47.328 429.195 47.5997C429.195 47.817 428.923 47.98 428.652 47.98C428.38 47.98 425.117 50.2077 421.474 52.87C417.777 55.5867 414.732 58.086 414.732 58.4664C414.678 58.8467 414.623 60.9657 414.515 67.2684L408.642 71.9954C405.434 74.6034 402.661 76.7224 402.444 76.7767C402.172 76.7767 402.281 76.2334 402.553 75.5814C402.879 74.875 404.945 66.9967 407.229 58.0317C409.512 49.0667 411.47 41.3514 411.579 40.9167C411.687 40.482 412.122 38.6347 413.482 33.5817L410.872 31.1367C409.404 29.7784 402.661 23.5844 395.811 17.2817C385.915 8.20802 383.631 5.81735 384.447 5.54569C384.99 5.32835 385.588 5.27402 385.86 5.38269C386.078 5.49135 386.35 5.32835 386.513 5.05669Z" fill="#365FD7"/>
<path d="M247.482 49.773C247.482 50.0447 248.135 49.7187 249.005 49.121C249.983 48.3604 251.288 47.98 252.865 47.98C254.116 47.98 255.964 48.3604 256.834 48.795C257.976 49.3927 258.955 50.6424 260.205 53.3047C261.728 56.619 261.945 57.5427 262.163 63.7367C262.435 69.7134 262.326 71.0717 261.184 75.1467C260.477 77.7004 259.39 80.3627 258.792 81.0147C258.139 81.721 256.997 82.6447 256.182 83.0794C255.312 83.514 254.007 83.84 253.191 83.84C252.321 83.84 251.179 83.514 250.581 83.025C249.983 82.5904 249.385 82.21 249.222 82.21C249.059 82.21 249.004 85.0354 249.222 94.7067H242.697V48.5234H245.198C246.612 48.5234 247.7 48.6864 247.591 48.958C247.536 49.1754 247.482 49.5557 247.482 49.773Z" fill="#365FD7"/>
<path d="M0.196289 84.3833L0.250662 55.2607V26.1923L5.90541 26.5183L6.17728 78.95L21.1297 79.2217V84.1117L0.196289 84.3833Z" fill="#F64655"/>
<path d="M320.614 37.6023C320.505 36.2983 320.56 34.8857 320.723 34.451C320.94 34.0163 321.865 33.799 325.671 34.0707V40.0473H320.777L320.614 37.6023Z" fill="#F64655"/>
<path d="M320.505 75.6357V62.0523V48.469H327.03V75.6357H320.505Z" fill="#F64655"/>
<path d="M190.065 60.531C189.902 55.0977 190.011 50.3163 190.174 49.8273C190.446 49.1753 191.207 49.0123 195.72 49.284L195.992 58.086C196.21 65.91 196.373 66.9967 197.351 68.029C197.949 68.681 199.037 69.17 199.798 69.17C200.505 69.17 201.484 68.7897 201.973 68.2463C202.571 67.54 202.843 65.258 203.332 49.284H209.313L209.422 61.2373C209.531 71.9953 209.476 73.2993 208.606 74.1687C208.063 74.712 206.975 75.1467 206.16 75.1467C205.181 75.1467 204.692 74.8207 204.692 74.2773C204.692 73.571 204.529 73.571 203.332 74.2773C202.571 74.7663 200.668 75.1467 199.091 75.1467C197.514 75.1467 195.557 74.8207 194.741 74.4403C193.926 74.06 193.273 73.571 193.273 73.3537C193.273 73.1363 192.893 72.919 192.458 72.919C191.968 72.919 191.642 72.4843 191.642 71.8323C191.642 71.2347 191.316 70.6913 190.935 70.5826C190.446 70.474 190.229 67.8117 190.065 60.531Z" fill="#F64655"/>
<path d="M295.004 55.0433C294.895 36.733 294.95 35.1573 295.82 34.5597C296.363 34.1793 297.451 33.8533 298.266 33.8533C299.136 33.8533 299.952 34.1793 300.115 34.5597C300.387 35.103 300.55 35.103 301.039 34.5597C301.366 34.1793 302.453 33.8533 303.432 33.8533C304.41 33.8533 306.15 34.288 307.238 34.8857C308.38 35.429 309.956 36.6243 310.772 37.6023C311.642 38.526 312.512 40.2103 312.784 41.297C313.056 42.438 313.436 44.9373 313.599 46.8933C313.926 49.936 313.762 50.8053 312.675 53.1417C311.914 54.6087 310.718 56.5103 309.902 57.3253C309.141 58.1947 307.564 59.064 306.422 59.39C305.335 59.6617 303.758 60.042 301.42 60.4767L301.148 74.875H295.167L295.004 55.0433Z" fill="#45B7DD"/>
<path d="M89.258 53.2503C89.8018 52.4353 91.2155 51.2943 92.4117 50.6967C93.9341 49.8817 95.4022 49.61 97.5771 49.7187C99.6976 49.8273 101.166 50.262 102.579 51.24C103.721 52.0007 105.135 53.685 105.787 55.0433C106.657 56.782 107.092 58.738 107.201 61.835C107.364 65.1493 107.147 66.725 106.44 68.355C105.896 69.5503 104.972 71.126 104.374 71.778C103.721 72.4843 102.307 73.571 101.166 74.1143C100.078 74.6577 98.3383 75.1467 97.3596 75.1467C96.4352 75.1467 94.5322 74.549 93.1729 73.8427C91.2698 72.919 90.3999 71.941 89.2037 69.659C88.3881 68.029 87.5725 65.3667 87.355 63.7367C87.1919 62.1067 87.355 59.39 87.6812 57.76C88.0075 56.13 88.7143 54.1197 89.258 53.2503Z" fill="#45B7DD"/>
<path d="M414.896 65.3667C414.787 66.725 414.678 65.8557 414.678 63.465C414.678 61.0743 414.787 59.9877 414.896 61.02C415.004 62.0523 415.004 64.0083 414.896 65.3667Z" fill="#45B7DD"/>
<path d="M366.014 62.4326C365.96 50.4793 366.014 49.3383 366.939 48.4146C367.483 47.8713 368.679 47.4366 369.712 47.4366C370.745 47.4366 371.615 47.654 371.724 47.9256C371.778 48.2516 372.757 48.1973 374.17 47.817C375.856 47.328 376.726 47.328 377.433 47.7626C377.922 48.0886 378.357 48.9036 378.357 49.5013C378.357 50.3706 377.65 51.0226 375.91 51.892C374.062 52.87 373.355 53.522 373.137 54.7716C372.92 55.641 372.757 60.857 372.702 66.2903C372.648 74.6033 372.539 76.2876 371.832 76.505C371.397 76.668 370.201 76.7766 369.223 76.7766C368.298 76.7766 367.156 76.505 366.776 76.1246C366.286 75.5813 366.069 72.104 366.014 62.4326Z" fill="#98B34D"/>
<path d="M112.856 62.65C112.747 50.5336 112.801 49.284 113.671 48.632C114.215 48.306 115.194 47.98 115.846 47.98C116.553 47.98 117.205 48.3603 117.369 48.795C117.586 49.447 117.967 49.5013 119.707 49.0123C120.794 48.6863 123.078 48.469 124.818 48.5776C126.829 48.7406 128.406 49.1753 129.439 49.936C130.255 50.5336 131.397 51.892 131.94 52.9243C132.756 54.6086 132.865 56.5646 132.593 92.2616H128.243L127.699 55.8583L125.688 54.8803C123.839 54.0653 123.513 54.011 122.262 54.7716C121.501 55.2063 120.522 56.456 120.087 57.4883C119.489 58.901 119.272 61.4003 119.272 67.1053C119.326 72.756 119.109 75.038 118.619 75.5813C118.184 75.9616 116.879 76.179 113.019 75.9616L112.856 62.65Z" fill="#98B34D"/>
<path d="M178.973 41.8404C178.919 38.1457 179.136 34.94 179.354 34.7227C179.626 34.5054 180.604 34.3967 183.16 34.6684L183.323 54.2284C183.432 72.3757 183.377 73.8427 182.507 74.4947C181.964 74.875 180.985 75.1467 180.333 75.1467C179.354 75.1467 179.082 74.8207 179.028 72.1584L177.831 73.6254C177.016 74.6034 175.928 75.201 174.46 75.364C173.264 75.527 171.47 75.364 170.437 74.9837C169.404 74.6577 167.827 73.408 165.217 70.148L164.836 53.685L166.685 51.24C167.718 49.8817 169.132 48.469 169.893 48.0887C170.654 47.654 172.394 47.491 174.188 47.5997C175.82 47.7084 177.614 47.98 178.103 48.1974C179.028 48.469 179.082 47.98 178.973 41.8404Z" fill="#E0A32D"/>
<path d="M16.0729 52.6527C16.9972 51.2944 18.7915 49.61 19.9877 48.9037C21.8364 47.7627 22.9782 47.5454 26.7299 47.491C31.1341 47.4367 31.1885 47.4367 33.4721 49.5014C34.6683 50.588 36.1364 52.4897 36.6801 53.685C37.2238 54.8804 37.7132 56.5647 37.7132 57.4884C37.7132 58.412 37.4957 59.39 37.2782 59.7704C37.0607 60.0964 35.7014 60.9657 34.179 61.6177C32.7109 62.2697 29.1223 63.4107 26.2949 64.0627C23.4676 64.769 21.0208 65.4754 20.8577 65.6384C20.6946 65.8014 21.347 66.6707 22.217 67.5944C23.4132 68.7897 24.5006 69.2787 26.2949 69.496C28.1436 69.7134 29.1767 69.496 30.536 68.681C31.4603 68.029 32.5478 66.9424 32.8197 66.1817C33.2546 65.1494 33.744 64.8234 35.1577 64.8234C36.082 64.769 37.2238 65.1494 37.6044 65.6384C38.0938 66.2904 38.0938 66.9424 37.6044 68.7897C37.2782 70.0394 36.7345 71.3977 36.4082 71.8324C36.082 72.2127 34.3965 73.245 32.7109 74.1144C30.3729 75.2554 28.7961 75.69 26.5668 75.69C24.9356 75.69 23.5763 75.4727 23.5763 75.1467C23.5763 74.8207 22.9782 74.4947 22.217 74.3317C21.4558 74.1687 19.9333 73.0277 18.8459 71.8324C17.7041 70.5827 16.3991 68.9527 15.9098 68.1377C15.4748 67.377 14.768 65.5297 14.333 64.0084C13.898 62.2697 13.7349 60.1507 13.9524 58.1947C14.2242 55.9127 14.8223 54.3914 16.0729 52.6527Z" fill="#E0A32D"/>
<path d="M269.177 50.6424C269.721 50.1534 270.917 49.3384 271.787 48.9037C272.766 48.3604 274.832 48.0344 276.953 47.98C279.073 47.98 281.194 48.306 282.227 48.795C283.206 49.2297 284.51 50.425 285.109 51.403C286.087 52.9787 286.196 54.1197 286.196 63.3564C286.196 73.2994 286.142 73.5167 285 74.3317C284.293 74.7664 283.423 75.1467 283.097 75.1467C282.716 75.1467 282.39 74.7664 282.39 74.3317C282.39 73.6254 282.172 73.6254 280.378 74.3317C279.236 74.8207 277.442 75.1467 276.409 75.1467C275.376 75.1467 273.636 74.9294 272.603 74.6034C271.57 74.3317 269.939 73.3537 269.069 72.43C267.709 71.0174 267.383 70.2024 267.274 67.6487C267.111 65.095 267.274 64.2257 268.362 62.65C269.069 61.5634 270.863 60.1507 272.603 59.2814C274.234 58.4664 276.137 57.76 276.79 57.76C277.496 57.76 278.203 57.3254 278.366 56.8364C278.584 56.293 278.584 55.315 278.366 54.663C278.203 53.9567 277.605 53.4134 277.061 53.4134C276.572 53.4134 275.593 53.9567 274.886 54.663C274.234 55.315 273.69 56.1844 273.69 56.5647C273.69 56.945 272.875 57.2167 271.515 57.2167C269.884 57.2167 269.123 56.8907 268.471 56.0214C267.981 55.2064 267.764 54.174 267.927 53.1417C268.09 52.218 268.688 51.1314 269.177 50.6424Z" fill="#E0A32D"/>
<path d="M65.9865 33.5273C66.7477 32.658 67.9439 31.68 68.7052 31.2996C69.4664 30.9736 70.9888 30.6476 72.0763 30.6476C73.2181 30.5933 75.2842 30.865 76.6979 31.191C78.7097 31.68 79.5797 32.2776 80.504 33.636C81.2109 34.6683 81.7546 35.8636 81.7546 36.2983C81.7546 36.733 81.9721 37.222 82.2983 37.385C82.6245 37.548 82.842 38.6346 82.842 42.0033H80.2321C77.7854 41.949 77.6223 41.8946 76.6979 39.83C75.9911 38.1456 75.5017 37.6566 74.4143 37.6566C73.5443 37.6566 72.62 38.2 71.9675 39.178C71.315 39.993 70.8257 41.46 70.8801 42.438C70.8801 43.3616 71.1519 44.8286 71.5325 45.698C71.8588 46.513 73.055 47.98 74.088 48.958C75.1755 49.8816 76.2629 50.6966 76.5892 50.6966C76.9154 50.6966 78.1116 51.729 79.3078 52.9243C80.504 54.174 81.809 55.8583 82.2439 56.619C82.7333 57.5426 83.0052 59.8246 83.0052 63.465C83.0052 68.4636 82.842 69.1156 81.4283 71.452C80.5584 72.8646 78.8728 74.6576 77.6766 75.4183C76.0998 76.3963 74.7949 76.7766 72.7831 76.7766C70.6626 76.7766 69.412 76.3963 67.1284 75.038C65.0078 73.734 63.8116 72.5386 62.8873 70.8C62.1261 69.333 61.6367 67.4313 61.6367 63.7366H70.3363V65.5296C70.282 66.6163 70.7169 67.703 72.5656 69.4416L73.7618 68.192C74.7405 67.214 74.958 66.3446 74.958 63.465C74.958 60.368 74.7949 59.8246 73.3268 58.3033C72.4025 57.3796 71.3694 56.6733 70.9888 56.6733C70.6626 56.6733 69.0858 55.5323 67.509 54.1196C65.9865 52.6526 64.301 50.5336 63.7573 49.3383C63.1048 47.9256 62.7242 45.8066 62.7242 43.3616C62.7242 40.8623 62.996 38.7976 63.6485 37.3306C64.1922 36.1353 65.2253 34.451 65.9865 33.5273Z" fill="#138F97"/>
<path d="M341.819 48.632C342.634 48.0886 343.232 47.5996 343.178 47.4366C343.124 47.2736 344.755 47.0563 346.821 47.002C350.464 46.8933 350.79 47.002 354.705 49.284C358.511 51.566 358.837 51.892 359.49 54.337C359.925 55.7496 360.36 57.8143 360.523 58.8466C360.686 59.9876 360.577 60.9113 360.197 61.183C359.87 61.4003 359.599 62.2153 359.599 63.0846C359.599 63.8996 359.272 64.932 358.892 65.421C358.402 66.073 357.478 66.236 355.521 66.1273C353.998 66.073 351.823 65.747 350.627 65.3666C349.431 65.0406 348.072 64.6603 347.637 64.5516C347.202 64.443 346.821 64.3343 346.821 64.28C346.821 64.2256 346.386 64.117 345.842 63.954C345.353 63.8453 344.592 63.6823 344.211 63.5736C343.885 63.465 343.015 63.139 342.308 62.7586C341.384 62.2696 341.112 62.2696 341.058 62.813C341.058 63.139 340.949 63.954 340.786 64.5516C340.677 65.258 341.221 66.2903 342.362 67.4313C343.939 69.0613 344.374 69.2243 346.821 69.1156C348.942 69.007 349.812 68.681 351.715 66.3446L356.445 70.5283L354.651 72.4843C353.618 73.571 351.932 74.8206 350.899 75.3096C349.63 75.853 347.945 76.0522 345.842 75.9073C343.722 75.7443 341.927 75.201 340.188 74.223C338.774 73.3536 337.578 72.267 337.469 71.778C337.36 71.2346 337.143 70.8 336.871 70.8C336.653 70.8543 336.218 70.148 335.838 69.333C335.512 68.518 334.968 66.6163 334.642 65.095C334.261 63.628 334.152 61.672 334.261 60.7483C334.424 59.8246 334.696 58.412 334.859 57.4883C335.077 56.5646 335.566 55.152 336.055 54.2283C336.49 53.3046 337.632 51.892 338.556 51.077C339.535 50.2076 340.949 49.121 341.819 48.632Z" fill="#138F97"/>
<path d="M301.311 46.513C301.257 43.09 301.42 42.1663 302.235 41.3513C303.105 40.482 303.377 40.482 304.356 41.0797C305.008 41.5143 305.824 42.8183 306.204 43.9593C306.639 45.1547 306.802 47.002 306.639 48.2517C306.476 49.447 305.933 50.9683 305.498 51.6747C305.063 52.3267 304.193 52.87 303.595 52.87C302.996 52.87 302.235 52.381 301.963 51.7833C301.691 51.1857 301.365 48.795 301.311 46.513Z" fill="#F9EFDE"/>
<path d="M20.1501 55.7497C20.422 55.2607 21.5638 54.3913 22.76 53.848C23.9562 53.3047 25.7505 52.87 26.6749 52.87C27.6536 52.87 28.8498 53.033 29.3391 53.3047C29.8285 53.522 30.5897 54.337 30.9703 55.2063C31.4053 56.0213 31.6228 57.1623 31.4596 57.76C31.2965 58.5207 30.5897 58.9553 29.176 59.1727C28.0342 59.3357 25.7505 59.8247 24.1193 60.2593C22.4882 60.6397 20.8026 61.02 20.422 61.02C20.0414 61.02 19.7695 60.205 19.7695 58.8467C19.7695 57.6513 19.9326 56.2387 20.1501 55.7497Z" fill="#F9EFDE"/>
<path d="M342.471 57.271C342.471 56.8907 343.069 55.7497 343.776 54.7717C344.809 53.3047 345.353 53.033 346.766 53.196C347.691 53.3047 349.05 53.522 349.811 53.685C350.572 53.848 351.334 54.1197 351.606 54.2283C351.823 54.3913 352.258 55.152 352.639 56.0213C352.965 56.8363 353.291 58.1403 353.291 58.9553C353.345 59.879 353.019 60.531 352.421 60.694C351.877 60.857 351.334 60.857 351.225 60.6397C351.116 60.368 350.083 59.9877 348.941 59.7703C347.745 59.4987 346.549 59.1183 346.277 58.9553C346.005 58.738 345.407 58.5207 345.081 58.4663C344.7 58.3577 343.939 58.1947 343.45 58.1403C342.906 58.0317 342.471 57.597 342.471 57.271Z" fill="#F9EFDE"/>
<path d="M171.36 61.835C171.306 56.5103 171.36 56.13 172.557 55.0433C173.263 54.4457 174.133 53.9567 174.405 53.9567C174.731 53.9567 175.275 54.174 175.601 54.3913C175.928 54.6087 176.526 55.7497 176.906 56.945C177.341 58.3033 177.504 60.4223 177.287 62.65C177.124 64.606 176.689 66.9967 176.417 67.9747C175.982 69.17 175.493 69.7133 174.731 69.7133C174.133 69.7133 173.155 69.2243 172.557 68.6267C171.632 67.703 171.469 66.725 171.36 61.835Z" fill="#F9EFDE"/>
<path d="M250.799 58.3033C251.179 56.945 251.777 55.6953 252.158 55.478C252.484 55.2607 252.974 55.152 253.3 55.2607C253.572 55.315 254.115 56.3473 254.496 57.5427C254.822 58.6837 255.094 62.487 255.094 65.91C255.094 69.333 254.822 73.1363 254.442 74.3317C254.007 75.853 253.517 76.505 252.811 76.505C252.104 76.505 251.506 75.7987 251.016 74.3317C250.527 73.0277 250.201 69.9307 250.146 66.4533C250.146 63.302 250.418 59.6617 250.799 58.3033Z" fill="#F9EFDE"/>
<path d="M94.2056 63.302C94.1512 59.6073 94.3687 58.249 95.0756 57.3253C95.6737 56.5647 96.4893 56.13 97.1961 56.2387C97.8486 56.3473 98.7186 57.1623 99.2623 58.3033C99.8604 59.4443 100.241 61.4547 100.241 63.3563C100.241 65.0407 99.8604 67.1597 99.4254 68.0833C98.8273 69.2243 98.2292 69.7133 97.2505 69.7133C96.4893 69.7133 95.5106 69.333 95.0756 68.8983C94.4775 68.3007 94.26 66.7793 94.2056 63.302Z" fill="#F9EFDE"/>
<path d="M274.886 67.214C274.831 66.073 275.049 64.769 275.375 64.443C275.701 64.0627 276.408 63.7367 276.898 63.7367C277.387 63.6823 278.094 64.0083 278.474 64.3887C278.855 64.769 279.072 66.073 279.018 67.214C278.909 68.518 278.474 69.5503 277.876 69.9307C277.224 70.3653 276.68 70.3653 275.973 69.9307C275.43 69.5503 274.995 68.518 274.886 67.214Z" fill="#F9EFDE"/>
</svg>
