<svg width="286" height="198" fill="inherit" xmlns="http://www.w3.org/2000/svg"><path d="M105.421 49.54c-10.42 0-15.87-6.69-15.87-14.21 0-17.87 23.46-35.33 40.23-35.33 8.69 0 16.08 5.31 15.87 14.21 0 17.73-23.46 35.33-40.23 35.33zm24.36-42.3c-16.77 0-32.98 18.91-32.98 28.08 0 3.17 1.59 6.97 8.62 6.97 14.15 0 31.46-14.56 32.98-28.08 0-3.45-1.86-6.97-8.62-6.97zM196.431 1.17v47.06h-18.08V34.98h-7.25V21.66h-7.25V8.42h-3.66v39.81h-7.25V1.17h18.15v13.25h7.25v13.32h7.25v13.32h3.59V1.17h7.25zM102.111 82.11v20.91c-2.62 3.1-9.94 7.45-18.56 7.45-12.83 0-24.63-12.01-24.63-24.77-.48-13.11 11.32-25.05 24.63-24.77 3.38 0 6.56.62 12.83 3.24l-2.69 6.69c-5.52-2.28-7.73-2.69-10.14-2.69-9.38-.21-17.87 8.21-17.39 17.53 0 9.45 8.42 17.53 17.39 17.53 3.45 0 8.9-1.79 11.32-3.93v-9.94h-14.9v-7.25h22.15-.01zM144.961 109.23h-9.38l-16.77-19.94h-.76v19.94h-7.25V62.17h16.91c7.52 0 13.59 6 13.59 13.52s-5.73 13.32-13.04 13.59l16.7 19.94v.01zm-17.25-27.19c3.52 0 6.35-2.83 6.35-6.35 0-3.52-2.83-6.28-6.35-6.28h-9.66v12.63h9.66zM188.361 109.23h-7.66l-3.79-10.35h-20.08l-3.73 10.35h-7.73l17.11-47.06h8.76l17.11 47.06h.01zm-14.14-17.6l-7.38-20.29-7.38 20.29h14.77-.01zM233.691 60.65l5.8 4.35c-6.35 8.76-8.42 16.97-5.86 24.08l2.9 8c2.07 5.87-2.35 12.14-8.56 12.14-3.66 0-6.76-2.21-8.21-5.24l-15.66-33.53c-.35-.69-.97-1.1-1.59-1.1-1.24 0-2.14 1.31-1.73 2.48l2.97 8.07c1.66 4.42 1.86 10.01.97 14.63-.9 4.83-2.9 9.32-7.94 16.15l-5.87-4.35c6.49-8.69 8.56-17.11 5.93-24.08l-2.9-7.94c-2.28-5.87 2.42-12.21 8.56-12.21 3.66 0 6.76 2.14 8.21 5.24l15.66 33.6c.21.48.9 1.03 1.59 1.03 1.17 0 2.21-1.31 1.72-2.42-2.97-8.14-2.97-8.21-3.04-8.28-1.38-4.62-1.66-9.59-.9-14.42.83-4.9 2.83-9.38 7.93-16.21l.02.01zM261.291 109.23h-14.49V62.17h14.49c12.97 0 23.53 10.56 23.53 23.53s-10.56 23.53-23.53 23.53zm0-39.81h-7.25v32.57h7.25c8.97 0 16.35-7.31 16.28-16.28 0-9.11-7.31-16.28-16.28-16.28v-.01zM25.321 162.99v7.25H1.171v-47.06h7.24v39.81h16.91zM18.621 139.39l8.14-17.46 6.56 3.04-8.14 17.46-6.56-3.04zM46.641 171.54c-10.42 0-15.87-6.69-15.87-14.21 0-17.87 23.46-35.33 40.23-35.33 8.69 0 16.08 5.31 15.87 14.21 0 17.73-23.46 35.33-40.23 35.33zm24.36-42.3c-16.77 0-32.98 18.91-32.98 28.08 0 3.17 1.59 6.97 8.62 6.97 14.15 0 31.46-14.56 32.98-28.08 0-3.45-1.86-6.97-8.62-6.97zM107.291 157.19c0-1.17.21-2.28.48-3.38l4.21-16.08c.14-.48.21-.97.21-1.45 0-3.24-2.62-5.8-5.8-5.87h-.07c-3.17.07-5.8 2.62-5.8 5.87v33.95h-7.25v-33.95c0-7.11 5.87-13.11 13.04-13.11h.07c7.18 0 13.04 6 13.04 13.11 0 1.17-.14 2.28-.41 3.31l-4.28 16.08c-.14.48-.21.97-.21 1.52 0 3.24 2.69 5.8 5.86 5.8 3.17 0 5.8-2.62 5.8-5.8 0-.55-.07-1.04-.21-1.52l-4.21-16.08c-.28-1.03-.41-2.14-.41-3.31 0-7.18 5.8-13.11 13.04-13.11 7.24 0 13.04 5.93 13.04 13.11v33.95h-7.25v-33.95c0-3.31-2.55-5.8-5.8-5.87-3.24.07-5.8 2.55-5.8 5.87 0 .48 0 .97.14 1.45l4.28 16.08c.28 1.1.41 2.21.41 3.38 0 7.18-5.8 13.11-13.04 13.04-7.18.07-13.11-5.87-13.11-13.04h.03zM189.261 170.23c-1.72 0-4.28-.28-8-.83l1.31-7.11c3.04.48 4.83.69 6.69.69 11.52 0 17.46-5.52 17.46-10.83 0-2.35-.69-3.79-2.14-5.24-2.83 4-8.62 6.76-14.56 6.76-3.93 0-9.38-2.42-9.38-8.28 0-5.24 4.35-9.25 11.04-9.25 3.59 0 6.76.34 9.59 1.1 0-.28.07-.55.07-.83 0-3.66-2.42-7.25-13.04-7.25-5.66 0-12.14 2.07-17.53 6.07 4.21 4.97 8.21 12.01 8.21 21.11 0 5.52-2.35 15.11-12.01 15.11s-13.18-10.49-13.18-16.15c0-8 2.62-14.83 6.69-19.94-2.28-1.86-4.07-2.9-7.38-4.62l3.38-6.42c3.38 1.79 5.87 3.17 9.11 5.8 6.69-5.45 15.04-8.21 22.7-8.21 13.04 0 20.29 5.59 20.29 14.42 0 1.38-.21 2.69-.55 4 3.93 3.1 5.93 6.97 5.93 11.8 0 11.38-11.38 18.08-24.7 18.08v.02zm-22.29-6c3.24 0 4.76-3.04 4.76-7.94 0-6.55-2.69-11.87-6-15.8-2.83 3.73-4.69 8.76-4.69 14.83 0 4 2.35 8.9 5.93 8.9v.01zm20.91-19.18c0 1.1.69 1.38 2.14 1.38 3.04 0 5.52-1.04 7.45-2.62-1.66-.28-3.59-.41-5.8-.41-1.59 0-3.79.41-3.79 1.66v-.01zM254.461 170.23h-9.38l-16.77-19.94h-.76v19.94h-7.25v-47.06h16.91c7.52 0 13.59 6 13.59 13.52s-5.73 13.32-13.04 13.59l16.7 19.94v.01zm-17.25-27.19c3.52 0 6.35-2.83 6.35-6.35 0-3.52-2.83-6.28-6.35-6.28h-9.66v12.63h9.66zM284.481 171.27l-4.28 5.86c-7.11-5.11-12.14-6.9-21.32-6.9v-47.06c9.18 0 14.21-1.79 21.32-6.9l4.28 5.86c-7.38 5.31-12.63 7.45-18.35 8.07v12.63c4.14-.62 7.94-2.21 14.08-6.62l4.28 5.87c-7.38 5.31-12.63 7.45-18.35 8.07v13.04c5.73.62 10.97 2.76 18.35 8.07l-.01.01zM.621 195.51l1.76-2.12c.99.84 2.25 1.43 3.38 1.43 1.28 0 1.91-.5 1.91-1.32 0-.86-.78-1.13-1.97-1.64l-1.78-.76c-1.41-.57-2.75-1.74-2.75-3.74 0-2.27 2.02-4.07 4.87-4.07 1.57 0 3.23.63 4.41 1.81l-1.57 1.95c-.9-.69-1.74-1.09-2.83-1.09s-1.74.46-1.74 1.24c0 .84.9 1.13 2.08 1.62l1.76.71c1.66.67 2.71 1.79 2.71 3.72 0 2.27-1.89 4.24-5.17 4.24-1.78 0-3.67-.67-5.06-1.97l-.01-.01zM13.181 190.32c0-4.47 2.52-7.03 6.21-7.03s6.21 2.58 6.21 7.03-2.52 7.16-6.21 7.16-6.21-2.69-6.21-7.16zm9.26 0c0-2.73-1.18-4.37-3.04-4.37s-3.04 1.64-3.04 4.37c0 2.73 1.18 4.49 3.04 4.49s3.04-1.74 3.04-4.49zM28.841 183.54h4.7c3 0 5.44 1.09 5.44 4.41 0 3.32-2.46 4.64-5.35 4.64h-1.7v4.64h-3.09v-13.69zm4.6 6.59c1.7 0 2.52-.76 2.52-2.18 0-1.42-.92-1.95-2.6-1.95h-1.43v4.14h1.51v-.01zM42.011 183.54h3.09v5.27h4.72v-5.27h3.11v13.69h-3.11v-5.71h-4.72v5.71h-3.09v-13.69zM56.811 183.54h3.09v13.69h-3.09v-13.69zM63.791 183.54h8.57v2.6h-5.48v2.75h4.66v2.58h-4.66v3.15h5.69v2.6h-8.78v-13.69.01zM80.801 183.54h3.09v11.09h5.42v2.6h-8.5v-13.69h-.01zM94.741 183.54h3.72l4.28 13.69h-3.28l-.84-3.25h-4.18l-.84 3.25h-3.15l4.28-13.69h.01zm.34 8.02h2.92l-.31-1.26c-.38-1.37-.76-2.98-1.11-4.41h-.08c-.34 1.45-.69 3.04-1.07 4.41l-.34 1.26h-.01zM104.881 183.54h3.09v11.09h5.42v2.6h-8.5v-13.69h-.01zM115.011 190.32c0-4.47 2.52-7.03 6.21-7.03s6.21 2.58 6.21 7.03-2.52 7.16-6.21 7.16-6.21-2.69-6.21-7.16zm9.26 0c0-2.73-1.18-4.37-3.04-4.37s-3.04 1.64-3.04 4.37c0 2.73 1.18 4.49 3.04 4.49s3.04-1.74 3.04-4.49zM132.601 192.36l-4.14-8.82h3.32l1.22 3.15c.38 1.03.73 1.97 1.11 3.02h.08c.4-1.05.78-2 1.15-3.02l1.24-3.15h3.23l-4.14 8.82v4.87h-3.09v-4.87h.02zM146.781 183.54h3.09v11.09h5.42v2.6h-8.5v-13.69h-.01zM158.311 183.54h8.57v2.6h-5.48v2.75h4.66v2.58h-4.66v3.15h5.69v2.6h-8.78v-13.69.01zM168.221 181.06c0-.84.61-1.47 1.47-1.47s1.47.63 1.47 1.47-.61 1.47-1.47 1.47-1.47-.63-1.47-1.47zm2.25 2.48h3.09v13.69h-3.09v-13.69zm2.42-2.48c0-.84.61-1.47 1.47-1.47s1.47.63 1.47 1.47-.61 1.47-1.47 1.47-1.47-.63-1.47-1.47zM177.441 183.54h3.09v11.09h5.42v2.6h-8.5v-13.69h-.01zM191.381 183.54h3.72l4.28 13.69h-3.28l-.84-3.25h-4.18l-.84 3.25h-3.15l4.28-13.69h.01zm.34 8.02h2.92l-.31-1.26c-.38-1.37-.76-2.98-1.11-4.41h-.08c-.34 1.45-.69 3.04-1.07 4.41l-.34 1.26h-.01zM206.371 183.54h3.38l2.21 6.09c.27.8.52 1.68.8 2.52h.08c.27-.84.5-1.72.78-2.52l2.16-6.09h3.36v13.69h-2.81v-5.02c0-1.34.25-3.34.4-4.66h-.08l-1.11 3.25-1.95 5.23h-1.7l-1.95-5.23-1.09-3.25h-.08c.15 1.32.4 3.32.4 4.66v5.02h-2.77v-13.69h-.03zM223.031 183.54h8.57v2.6h-5.48v2.75h4.66v2.58h-4.66v3.15h5.69v2.6h-8.78v-13.69.01zM235.191 183.54h3.17l3.57 6.8 1.34 3.02h.08c-.13-1.45-.38-3.38-.38-5v-4.83h2.94v13.69h-3.17l-3.57-6.82-1.34-2.98h-.08c.12 1.51.38 3.34.38 4.96v4.85h-2.94v-13.69zM249.801 183.54h3.86c4.18 0 6.87 2.08 6.87 6.78s-2.69 6.91-6.7 6.91h-4.03v-13.69zm3.67 11.19c2.33 0 3.88-1.13 3.88-4.41 0-3.28-1.55-4.28-3.88-4.28h-.59v8.69h.59zM263.791 183.54h8.57v2.6h-5.48v2.75h4.66v2.58h-4.66v3.15h5.69v2.6h-8.78v-13.69.01zM275.091 195.36l6.05-9.22h-5.48v-2.6h9.28v1.87l-6.05 9.22h6.11v2.6h-9.91v-1.87zM69.721 1.59c-7.19 0-12.94 5.88-12.94 13.01 0 1.16.14 2.26.41 3.28l4.18 15.96c.14.47.21.96.21 1.5 0 3.15-2.6 5.75-5.75 5.75h-.03c-3.12-.09-5.69-2.61-5.69-5.81 0-.47.07-.96.2-1.44l4.18-15.95c.27-1.1.48-2.19.48-3.36 0-7.11-5.87-12.99-12.98-12.94h-.03c-7.19-.07-12.94 5.82-12.94 12.94 0 1.16.13 2.26.41 3.36l4.25 15.95c.14.48.14.96.14 1.44 0 3.29-2.53 5.75-5.74 5.82-3.13-.03-5.79-2.55-5.79-5.76 0-.55.07-1.03.2-1.5l4.25-15.96c.27-1.02.41-2.12.41-3.28 0-7.05-5.82-13.01-12.94-13.01h-.07c-7.15 0-12.97 5.96-12.97 13.01v33.69h7.19V14.6c0-3.22 2.6-5.76 5.75-5.82h.07c3.15.07 5.75 2.6 5.75 5.82 0 .47-.07.96-.2 1.44l-4.18 15.95c-.27 1.1-.48 2.19-.48 3.36 0 7.11 5.87 12.99 12.98 12.94 7.19 0 12.93-5.88 12.93-13.01 0-1.16-.14-2.26-.41-3.28l-4.18-15.96a5.18 5.18 0 01-.21-1.5c0-3.15 2.6-5.75 5.75-5.75h.03c3.13.02 5.79 2.54 5.79 5.75 0 .55-.07 1.03-.2 1.5L43.301 32c-.27 1.02-.41 2.12-.41 3.28 0 7.03 5.79 12.97 12.88 13.01h.03c7.19.07 12.94-5.82 12.94-12.94 0-1.16-.13-2.26-.41-3.36l-4.25-15.95c-.14-.48-.14-.96-.14-1.44 0-3.29 2.53-5.76 5.75-5.82 3.22.07 5.75 2.53 5.75 5.82v33.69h7.19V14.6c0-7.13-5.75-13.01-12.94-13.01h.03z" fill="inherit"/></svg>