<svg width="62" height="77" viewBox="0 0 62 77" fill="none" xmlns="http://www.w3.org/2000/svg">
<path d="M2.81575 4.89C2.97887 4.61833 2.59827 3.36867 2.00017 2.17333C1.3477 0.978 1.07583 0 1.29332 0C1.51082 0 3.19636 0.217333 4.99065 0.543333C6.78495 0.815 9.39484 1.141 10.8629 1.35833C12.2766 1.52133 13.5815 1.73867 13.8534 1.84733C14.0709 1.956 15.7021 2.17333 17.4964 2.39067C19.2907 2.55367 21.3568 2.87967 22.118 3.04267C22.8792 3.15133 24.456 3.423 25.6522 3.586C26.8484 3.749 28.2078 3.912 28.6971 3.96633C29.1321 4.02067 29.8933 4.45533 30.3283 4.89C30.7632 5.379 31.6876 6.57433 32.4488 7.60667C33.1557 8.639 33.9712 9.78 34.1887 10.0517C34.4606 10.3233 35.0587 11.1383 35.6024 11.7903C36.0918 12.388 36.9074 13.4747 37.3424 14.1267C37.7773 14.833 39.7891 17.441 41.7465 20.049C44.2477 23.3633 45.607 24.6673 46.3682 24.613C46.9119 24.5587 48.38 24.3957 49.5762 24.1783C50.7724 24.0153 53.0017 23.6893 54.5241 23.472C57.1884 23.0917 57.3515 23.146 57.7321 24.45C57.9496 25.2107 58.9283 27.4383 59.8526 29.3943C60.777 31.3503 61.4838 33.252 61.4294 33.6323C61.3207 34.0127 60.9944 34.0127 60.342 33.4693C59.7982 33.0347 58.7108 32.5457 57.8952 32.3827C56.4815 32.0567 56.3728 32.2197 56.264 33.8497C56.264 34.7733 56.1553 35.86 56.1009 36.1317C56.0465 36.4033 55.829 37.3813 55.6115 38.305C55.3397 39.5547 54.0891 40.8043 50.3918 43.4667C47.6731 45.4227 45.4982 47.1613 45.4982 47.433C45.4982 47.6503 45.2264 47.8133 44.9545 47.8133C44.6827 47.8133 41.4203 50.041 37.7773 52.7033C34.08 55.42 31.0351 57.9193 31.0351 58.2997C30.9808 58.68 30.9264 60.799 30.8176 67.1017L24.9454 71.8287C21.7374 74.4367 18.9644 76.5557 18.7469 76.61C18.475 76.61 18.5838 76.0667 18.8557 75.4147C19.1819 74.7083 21.248 66.83 23.5317 57.865C25.8153 48.9 27.7728 41.1847 27.8815 40.75C27.9903 40.3153 28.4252 38.468 29.7845 33.415L27.1747 30.97C25.7066 29.6117 18.9644 23.4177 12.1135 17.115C2.21764 8.04133 -0.0659962 5.65067 0.749593 5.379C1.29332 5.16167 1.89143 5.10733 2.16329 5.216C2.38078 5.32467 2.65264 5.16167 2.81575 4.89Z" fill="#ffffff" fill-opacity="0.27"/>
</svg>
